<svg width="24" height="32" viewBox="0 0 24 32" fill="none" xmlns="http://www.w3.org/2000/svg">
<path d="M7.4385 1.54723L7.218 1.5899L7.0455 1.63409C6.85593 1.6952 6.68021 1.79401 6.52858 1.92475C6.37694 2.0555 6.25241 2.21557 6.16224 2.39566C6.07207 2.57574 6.01805 2.77225 6.00333 2.97374C5.98861 3.17524 6.01348 3.37769 6.0765 3.56933L7.2 6.99028L2.9775 9.63409C2.30012 10.0577 1.81609 10.7373 1.63185 11.5234C1.4476 12.3095 1.57823 13.1378 1.995 13.8261L2.1285 14.0288C2.40704 14.4155 2.77143 14.73 3.19208 14.9469C3.61273 15.1637 4.07779 15.2767 4.5495 15.2768L6.894 15.2752L4.473 22.3975C4.39481 22.6271 4.37177 22.8723 4.40581 23.1127C4.43986 23.3532 4.52999 23.5819 4.66869 23.7797C4.8074 23.9776 4.99066 24.1389 5.2032 24.2502C5.41573 24.3615 5.65138 24.4196 5.8905 24.4196H17.832C18.2242 24.4197 18.6008 24.2638 18.8812 23.9852C19.1615 23.7067 19.3234 23.3276 19.332 22.9293L19.5 15.3103C19.5 9.47866 17.1675 4.82952 12.495 3.17161L8.8965 1.90685L8.334 1.72247L7.947 1.60971L7.7445 1.56247L7.593 1.54266L7.5105 1.54114L7.4385 1.54571V1.54723ZM21 25.9434H3C2.60218 25.9434 2.22064 26.104 1.93934 26.3897C1.65804 26.6755 1.5 27.0631 1.5 27.4672C1.5 28.2755 1.81607 29.0507 2.37868 29.6222C2.94129 30.1938 3.70435 30.5149 4.5 30.5149H19.5C20.2355 30.515 20.9455 30.2407 21.495 29.744C22.0445 29.2474 22.3952 28.5629 22.4805 27.8208L22.497 27.5556C22.5088 27.3485 22.4789 27.141 22.409 26.946C22.3392 26.751 22.2308 26.5726 22.0907 26.4216C21.9505 26.2707 21.7815 26.1504 21.5939 26.0682C21.4064 25.9859 21.2043 25.9435 21 25.9434Z" fill="#0D5E47"/>
</svg>
